<?xml version="1.0" encoding="UTF-8" standalone="no"?>
<!-- Created with Inkscape (http://www.inkscape.org/) -->

<svg
   width="49.999996mm"
   height="49.999985mm"
   viewBox="0 0 49.999996 49.999984"
   version="1.1"
   id="svg1"
   xml:space="preserve"
   xmlns:xlink="http://www.w3.org/1999/xlink"
   xmlns="http://www.w3.org/2000/svg"
   xmlns:svg="http://www.w3.org/2000/svg"><defs
     id="defs1"><linearGradient
       id="swatch2"><stop
         style="stop-color:#ffffff;stop-opacity:1;"
         offset="0"
         id="stop2" /></linearGradient><linearGradient
       id="swatch1"><stop
         style="stop-color:#000000;stop-opacity:1;"
         offset="0"
         id="stop1" /></linearGradient><linearGradient
       id="swatch8"><stop
         style="stop-color:#3c6ec8;stop-opacity:1;"
         offset="0"
         id="stop8" /></linearGradient><linearGradient
       xlink:href="#swatch8"
       id="linearGradient100"
       gradientUnits="userSpaceOnUse"
       x1="122.73131"
       y1="241.89558"
       x2="135.05431"
       y2="241.89558" /><linearGradient
       xlink:href="#swatch1"
       id="linearGradient2"
       x1="41.598217"
       y1="521.20746"
       x2="91.598213"
       y2="521.20746"
       gradientUnits="userSpaceOnUse"
       gradientTransform="translate(23.781019,58.054771)" /><linearGradient
       xlink:href="#swatch8"
       id="linearGradient17"
       x1="56.623722"
       y1="531.2699"
       x2="78.54422"
       y2="531.2699"
       gradientUnits="userSpaceOnUse"
       gradientTransform="matrix(1.1835887,0,0,1.2727286,-45.143388,-143.57997)" /><linearGradient
       xlink:href="#swatch2"
       id="linearGradient51"
       gradientUnits="userSpaceOnUse" /><linearGradient
       xlink:href="#swatch8"
       id="linearGradient54"
       gradientUnits="userSpaceOnUse"
       gradientTransform="matrix(1.1835887,0,0,1.2727286,-45.143388,-143.57997)"
       x1="56.623722"
       y1="531.2699"
       x2="78.54422"
       y2="531.2699" /><linearGradient
       xlink:href="#swatch1"
       id="linearGradient55"
       gradientUnits="userSpaceOnUse" /><linearGradient
       xlink:href="#swatch2"
       id="linearGradient56"
       gradientUnits="userSpaceOnUse"
       gradientTransform="translate(92.57269,58.054771)"
       x1="41.598217"
       y1="521.20746"
       x2="91.598213"
       y2="521.20746" /></defs><g
     id="layer1"
     transform="translate(-24.549093,-678.33687)"><g
       id="g41"><g
         id="g47-2-9"
         transform="translate(-5.3893032,208.09174)"><g
           id="g1"><g
             id="g100"><path
               style="display:inline;fill:#ffffff;fill-opacity:1;stroke:#000000;stroke-width:0;stroke-linecap:square;stroke-dasharray:none;stroke-opacity:1"
               id="rect16-8-4-4"
               width="200"
               height="60"
               x="-210.3893"
               y="341.15826"
               transform="scale(-1,1)"
               d="m -203.77471,341.15826 h 186.770829 a 6.6145832,6.6145832 45 0 1 6.614584,6.61459 l 0,46.77083 a 6.6145832,6.6145832 135 0 1 -6.614584,6.61458 l -186.770829,0 a 6.6145832,6.6145832 45 0 1 -6.61459,-6.61458 v -46.77083 a 6.6145832,6.6145832 135 0 1 6.61459,-6.61459 z" /><g
               id="g64-0"><g
                 id="g20-5-77-7"
                 transform="matrix(0.88520369,0,0,0.88520369,-6.2905168,176.78498)"><g
                   id="g16-9-9-6"
                   transform="matrix(1.1296835,0,0,1.1296835,-10.641433,-71.131408)"><g
                     id="g15-8-3-3"><g
                       id="g14-9-4-19-6"
                       transform="matrix(0.63065924,0,0,0.63065924,31.028889,152.22393)"><g
                         id="g7-5-0-8-1"><path
                           style="fill:#000000;stroke:#000000;stroke-width:0;stroke-linecap:butt;stroke-linejoin:bevel;stroke-dasharray:none;stroke-dashoffset:64.4;stroke-opacity:0;paint-order:normal"
                           d="M 34.19677,142.83587 Z"
                           id="path13-7-1-3-6-5-5" /><g
                           id="g63-4"><g
                             id="g62-2"><path
                               id="path14-6-6-6-5-5-4-7-6-0"
                               style="fill:#000000;fill-opacity:1;stroke:#ffffff;stroke-width:0;stroke-linecap:butt;stroke-linejoin:bevel;stroke-dasharray:none;stroke-dashoffset:64.4;stroke-opacity:1;paint-order:normal"
                               d="m 58.908549,127.077 a 21.058416,21.058489 43.863103 0 0 -19.303215,16.87442 21.058416,21.058489 43.863103 0 0 7.873422,20.82612 7.5,7.5 0 0 1 1.160136,-1.72289 18.941753,18.941818 44.211625 0 1 -6.958232,-18.68723 18.941753,18.941818 44.211625 0 1 17.363281,-15.17841 18.941753,18.941818 44.211625 0 1 4.933549,0.33073 18.941753,18.941818 44.211625 0 1 14.847156,22.29735 18.941753,18.941818 44.211625 0 1 -17.221688,15.15928 7.5,7.5 0 0 1 0.09147,1.11621 7.5,7.5 0 0 1 -0.0708,1.01131 21.058416,21.058489 43.863103 0 0 19.276343,-16.87029 21.058416,21.058489 43.863103 0 0 -16.50597,-24.78867 21.058416,21.058489 43.863103 0 0 -5.485452,-0.36793 z" /><path
                               id="path14-9-6-5-09-1-3-0-9"
                               style="fill:#000000;fill-opacity:1;stroke:#ffffff;stroke-width:0;stroke-linecap:butt;stroke-linejoin:bevel;stroke-dasharray:none;stroke-dashoffset:64.4;stroke-opacity:1;paint-order:normal"
                               d="m 43.066622,162.01233 a 22.151579,22.151777 0 0 0 -22.15162,22.15162 22.151579,22.151777 0 0 0 22.15162,22.15214 22.151579,22.151777 0 0 0 22.151619,-22.15214 22.151579,22.151777 0 0 0 -4.21938,-12.94908 7.5,7.5 0 0 1 -1.264006,1.90996 20.034929,20.035109 0 0 1 3.36672,11.03912 20.034929,20.035109 0 0 1 -20.034953,20.03547 20.034929,20.035109 0 0 1 -20.034953,-20.03547 20.034929,20.035109 0 0 1 20.034953,-20.03495 20.034929,20.035109 0 0 1 4.471045,0.54054 7.5,7.5 0 0 1 1.347204,-1.87328 22.151579,22.151777 0 0 0 -5.818249,-0.78393 z" /><path
                               id="path14-6-1-1-4-4-9-2-6-2-7"
                               style="fill:#000000;fill-opacity:1;stroke:#925535;stroke-width:0;stroke-linecap:butt;stroke-linejoin:bevel;stroke-dasharray:none;stroke-dashoffset:64.4;stroke-opacity:1;paint-order:normal"
                               d="m 70.855623,158.79134 a 21.058453,21.05864 0 0 0 -11.761039,3.64422 7.5,7.5 0 0 1 1.394747,1.60766 18.941786,18.941954 0 0 1 10.366292,-3.13521 18.941786,18.941954 0 0 1 18.94148,18.94199 18.941786,18.941954 0 0 1 -18.94148,18.942 18.941786,18.941954 0 0 1 -18.941996,-18.942 18.941786,18.941954 0 0 1 0.559139,-4.46897 7.5,7.5 0 0 1 -1.998844,-0.77877 A 21.058453,21.05864 0 0 0 49.79696,179.85 21.058453,21.05864 0 0 0 70.855623,200.90867 21.058453,21.05864 0 0 0 91.91377,179.85 21.058453,21.05864 0 0 0 70.855623,158.79134 Z" /></g><circle
                             style="fill:#3c6ec8;fill-opacity:1;stroke:#ffffff;stroke-width:0;stroke-linecap:butt;stroke-linejoin:bevel;stroke-dasharray:none;stroke-dashoffset:64.4;stroke-opacity:1;paint-order:normal"
                             id="path15-2-8-3-1-8-3"
                             cx="54.19429"
                             cy="168.09248"
                             r="5" /></g></g></g></g></g></g><g
                 id="g34-6-7"
                 transform="translate(-130.63634,12.161647)"><g
                   id="g30-7-0-2"
                   transform="translate(143.24998,114.61695)"><path
                     style="font-weight:bold;font-size:23.4986px;font-family:Inter;-inkscape-font-specification:'Inter Bold';stroke:#925535;stroke-width:0;stroke-linecap:square"
                     d="M 66.750023,250.58134 V 233.4852 H 79.01565 v 3.02911 h -8.731658 v 3.95851 h 8.077644 v 2.94879 h -8.077644 v 4.13062 h 8.731658 v 3.02911 z m 14.204721,0 v -12.11646 h 3.384808 v 12.11646 z m 1.686667,-13.64249 q -0.837597,0 -1.388345,-0.50486 -0.550749,-0.51632 -0.550749,-1.29655 0,-0.78023 0.550749,-1.28508 0.550748,-0.51633 1.376871,-0.51633 0.837597,0 1.388345,0.51633 0.550748,0.50485 0.550748,1.28508 0,0.78023 -0.550748,1.29655 -0.550748,0.50486 -1.376871,0.50486 z m 9.810207,18.59923 q -1.721089,0 -2.925851,-0.49338 -1.193288,-0.4819 -1.881724,-1.3654 -0.676962,-0.88349 -0.84907,-2.0653 h 3.258594 q 0.126214,0.45895 0.447484,0.78022 0.332743,0.32127 0.826122,0.48191 0.493379,0.17211 1.124445,0.17211 1.239184,0 1.904672,-0.67696 0.676961,-0.67696 0.676961,-1.98499 v -1.85878 h -0.01147 q -0.355691,0.71139 -0.894966,1.17034 -0.5278,0.45896 -1.216236,0.67696 -0.676962,0.21801 -1.468662,0.21801 -1.583402,0 -2.765217,-0.7917 -1.181814,-0.7917 -1.835828,-2.18005 -0.64254,-1.38834 -0.64254,-3.18975 0,-1.82435 0.654014,-3.22417 0.665488,-1.4113 1.835828,-2.203 1.181815,-0.7917 2.730795,-0.7917 0.791701,0 1.457188,0.21801 0.676962,0.218 1.216236,0.66548 0.550749,0.44749 0.929388,1.12445 h 0.01147 v -1.75551 h 3.338913 v 11.64603 q 0,1.91615 -0.745805,3.10944 -0.745806,1.20476 -2.088255,1.75551 -1.330975,0.56222 -3.086486,0.56222 z m -0.137687,-7.65311 q 0.860544,0 1.49161,-0.42453 0.64254,-0.43601 0.998232,-1.22771 0.355691,-0.7917 0.355691,-1.84731 0,-1.0556 -0.355691,-1.83582 -0.355692,-0.7917 -0.998232,-1.21624 -0.631066,-0.43601 -1.49161,-0.43601 -0.814649,0 -1.422767,0.41306 -0.608118,0.40159 -0.952336,1.18182 -0.332744,0.78022 -0.332744,1.89319 0,1.11298 0.332744,1.8932 0.344218,0.78023 0.952336,1.19329 0.608118,0.41306 1.422767,0.41306 z m 11.841089,-4.03882 v 6.73519 h -3.3848 V 233.4852 h 3.3848 v 8.13501 h -0.63106 q 0.57369,-1.60635 1.64077,-2.50132 1.06707,-0.90644 2.71932,-0.90644 1.29655,0 2.24889,0.56222 0.95233,0.55075 1.46866,1.61783 0.5278,1.06707 0.5278,2.60458 v 7.58426 h -3.37333 v -6.96467 q 0,-1.21623 -0.58517,-1.8473 -0.5737,-0.64254 -1.64077,-0.64254 -0.69991,0 -1.23919,0.28685 -0.53927,0.28685 -0.83759,0.89496 -0.29833,0.59665 -0.29833,1.53751 z m 17.3371,-5.38127 v 2.65048 h -7.95143 v -2.65048 z m -5.86317,-3.30449 h 3.38481 v 11.68045 q 0,0.60812 0.24095,0.84908 0.25243,0.24095 0.94086,0.24095 0.28685,0 0.67696,0 0.40159,0 0.61959,0 v 2.65047 q -0.30979,0 -0.86054,0 -0.55075,0 -1.11297,0 -1.99646,0 -2.9488,-0.78022 -0.94086,-0.78023 -0.94086,-2.43247 z"
                     id="text15-9-2-6"
                     aria-label="Eight" /><path
                     style="font-weight:bold;font-size:23.4986px;font-family:Inter;-inkscape-font-specification:'Inter Bold';stroke:#925535;stroke-width:0;stroke-linecap:square"
                     d="M 136.32791,250.58134 V 233.4852 h 11.88699 v 3.02911 h -8.35302 v 4.19946 h 7.77932 v 2.93732 h -7.77932 v 6.93025 z m 13.58513,0 v -12.11646 h 3.38481 v 12.11646 z m 1.68667,-13.64249 q -0.8376,0 -1.38835,-0.50486 -0.55075,-0.51632 -0.55075,-1.29655 0,-0.78023 0.55075,-1.28508 0.55075,-0.51633 1.37687,-0.51633 0.8376,0 1.38835,0.51633 0.55075,0.50485 0.55075,1.28508 0,0.78023 -0.55075,1.29655 -0.55075,0.50486 -1.37687,0.50486 z m 7.51542,13.64249 -4.48631,-12.11646 h 3.54545 l 1.99646,5.98939 q 0.35569,1.06707 0.66549,2.13415 0.30979,1.06707 0.61959,2.14562 h -0.80318 q 0.29833,-1.07855 0.59665,-2.14562 0.30979,-1.06708 0.64254,-2.13415 l 1.97351,-5.98939 h 3.51103 l -4.49778,12.11646 z m 14.68936,0.27538 q -1.83583,0 -3.20123,-0.80318 -1.35392,-0.81464 -2.1112,-2.24889 -0.7458,-1.43424 -0.7458,-3.27006 0,-1.85878 0.75728,-3.28155 0.76875,-1.43424 2.1112,-2.24889 1.34245,-0.81465 3.07501,-0.81465 1.34245,0 2.43247,0.45896 1.09003,0.44748 1.88173,1.29656 0.7917,0.83759 1.21623,1.98498 0.43601,1.1474 0.43601,2.53574 v 0.90644 h -10.70517 v -2.1571 h 9.07587 l -1.52603,0.51633 q 0,-0.91791 -0.33274,-1.5834 -0.33275,-0.66549 -0.95234,-1.02118 -0.60812,-0.36717 -1.45719,-0.36717 -0.83759,0 -1.44571,0.36717 -0.60812,0.35569 -0.94086,1.02118 -0.33275,0.66549 -0.33275,1.5834 v 1.46866 q 0,0.94087 0.33275,1.65225 0.34421,0.69991 0.98675,1.09002 0.64254,0.37864 1.54898,0.37864 0.66549,0 1.17034,-0.18358 0.51633,-0.19506 0.86055,-0.53928 0.35569,-0.35569 0.50485,-0.82612 h 3.08649 q -0.21801,1.20476 -1.02118,2.12268 -0.80318,0.91791 -2.01941,1.44571 -1.21624,0.51633 -2.6849,0.51633 z"
                     id="text15-24-3-8-1"
                     aria-label="Five" /><path
                     style="font-weight:bold;font-size:23.4986px;font-family:Inter;-inkscape-font-specification:'Inter Bold';fill:url(#linearGradient100);stroke:#925535;stroke-width:0;stroke-linecap:square"
                     d="m 122.80015,250.58134 v -2.5931 l 6.26477,-5.35833 q 0.75728,-0.66548 1.35392,-1.25065 0.59665,-0.58517 0.92939,-1.22771 0.34422,-0.64254 0.34422,-1.43424 0,-0.81465 -0.34422,-1.4113 -0.33274,-0.60812 -0.95234,-0.94086 -0.60811,-0.33274 -1.45719,-0.33274 -0.91791,0 -1.5834,0.40158 -0.65401,0.40159 -1.02118,1.1474 -0.35569,0.73433 -0.35569,1.77846 h -3.24712 q 0,-1.85878 0.75728,-3.23565 0.76875,-1.38835 2.1571,-2.14563 1.38834,-0.76875 3.29301,-0.76875 1.75552,0 3.12091,0.65401 1.3654,0.65402 2.13415,1.85878 0.78023,1.19329 0.78023,2.81111 0,1.19329 -0.44748,2.18005 -0.44749,0.98676 -1.29656,1.91614 -0.83759,0.91792 -2.03088,1.9391 l -3.62576,3.15533 v 0.0229 h 7.481 v 2.83406 z"
                     id="text15-5-2-5-5"
                     aria-label="2" /></g></g></g></g></g><g
           id="g58"
           transform="translate(-35.440839,-84.017095)"><rect
             style="fill:url(#linearGradient2);fill-rule:evenodd;stroke-width:0.265;stroke-dasharray:none"
             id="rect1"
             width="50"
             height="50"
             x="65.379234"
             y="554.26221" /><g
             id="g52"
             transform="translate(55.531121,58.054957)"><g
               id="g51"><path
                 d="m 25.760419,527.958 -3.267501,5.92987 c -0.205389,0.37268 -0.01573,0.69391 0.409794,0.69402 h 23.891565 c 0.425556,-1.1e-4 0.6157,-0.32134 0.410311,-0.69402 L 43.937087,527.958 Z"
                 style="fill:url(#linearGradient17);stroke-width:2.4547;stroke-linecap:round;paint-order:stroke fill markers"
                 id="path51" /><path
                 d="m 26.863711,503.70728 c -1.750113,0 -1.750113,2.62517 0,2.62517 h 0.984952 v 9.28729 l -8.970511,16.27652 c -1.68525,3.0625 0.528577,6.81096 4.025077,6.81096 h 23.891048 c 3.49475,0 5.71001,-3.74846 4.02301,-6.81096 l -8.968445,-16.27652 v -9.28729 h 0.983403 c 1.750113,0 1.750113,-2.62517 0,-2.62517 z m 3.610115,2.62517 h 8.749854 v 9.62473 c -8e-5,0.22154 0.05592,0.4395 0.16278,0.63356 l 3.989938,7.24141 h -17.05529 l 3.989937,-7.24141 c 0.106861,-0.19406 0.16286,-0.41202 0.162781,-0.63356 z m -5.600175,20.12487 h 19.950204 l 3.694348,6.70605 c 0.723279,1.31204 -0.225735,2.91905 -1.723926,2.9192 H 22.903229 c -1.498191,-1.5e-4 -2.447205,-1.60716 -1.723926,-2.9192 z"
                 style="baseline-shift:baseline;display:inline;overflow:visible;vector-effect:none;fill:url(#linearGradient51);fill-rule:evenodd;stroke-linecap:round;paint-order:stroke markers fill;enable-background:accumulate;stop-color:#000000;stop-opacity:1"
                 id="path49" /></g></g></g><g
           id="g54"
           transform="translate(86.155742,-25.962139)"><g
             id="g57"><rect
               style="fill:url(#linearGradient56);fill-rule:evenodd;stroke-width:0.265;stroke-dasharray:none"
               id="rect52"
               width="50"
               height="50"
               x="134.17088"
               y="554.26221"
               transform="translate(-124.3228,-58.054956)" /><g
               id="g53"><g
                 id="g56"><path
                   d="m 25.760419,527.958 -3.267501,5.92987 c -0.205389,0.37268 -0.01573,0.69391 0.409794,0.69402 h 23.891565 c 0.425556,-1.1e-4 0.6157,-0.32134 0.410311,-0.69402 L 43.937087,527.958 Z"
                   style="fill:url(#linearGradient54);stroke-width:2.4547;stroke-linecap:round;paint-order:stroke fill markers"
                   id="path52" /><path
                   d="m 26.863711,503.70728 c -1.750113,0 -1.750113,2.62517 0,2.62517 h 0.984952 v 9.28729 l -8.970511,16.27652 c -1.68525,3.0625 0.528577,6.81096 4.025077,6.81096 h 23.891048 c 3.49475,0 5.71001,-3.74846 4.02301,-6.81096 l -8.968445,-16.27652 v -9.28729 h 0.983403 c 1.750113,0 1.750113,-2.62517 0,-2.62517 z m 3.610115,2.62517 h 8.749854 v 9.62473 c -8e-5,0.22154 0.05592,0.4395 0.16278,0.63356 l 3.989938,7.24141 h -17.05529 l 3.989937,-7.24141 c 0.106861,-0.19406 0.16286,-0.41202 0.162781,-0.63356 z m -5.600175,20.12487 h 19.950204 l 3.694348,6.70605 c 0.723279,1.31204 -0.225735,2.91905 -1.723926,2.9192 H 22.903229 c -1.498191,-1.5e-4 -2.447205,-1.60716 -1.723926,-2.9192 z"
                   style="baseline-shift:baseline;display:inline;overflow:visible;vector-effect:none;fill:url(#linearGradient55);fill-rule:evenodd;stroke-linecap:round;paint-order:stroke markers fill;enable-background:accumulate;stop-color:#000000;stop-opacity:1"
                   id="path53" /></g></g></g></g></g></g></g></svg>
